# xmcd
#
# Track frame offsets:
# 150
# 16512
# 37715
# 59825
# 80037
# 101177
# 116782
# 144430
#
# Disc length: 2204 seconds
#
#
# Revision: 2
# Processed by: cddbd v1.5.1PL2 Copyright (c) Steve Scherf et al.
# Submitted via: FreeRIP 2.51 
#
DISCID=66089a08
DTITLE=Ashford and Simpson - Send It
DYEAR=1977
DGENRE=R&B
TTITLE0=By Way Of Love's Express
TTITLE1=Let LOve Use Me
TTITLE2=Don't Cost You Nohin'
TTITLE3=Send It
TTITLE4=Top Of The Stairs
TTITLE5=Too Badd
TTITLE6=Bourgie' Bourgie'
TTITLE7=Waited Too Long
EXTD=
EXTT0=
EXTT1=
EXTT2=
EXTT3=
EXTT4=
EXTT5=
EXTT6=
EXTT7=
PLAYORDER=
